<svg width="24" height="25" viewBox="0 0 24 25" fill="none" xmlns="http://www.w3.org/2000/svg">
<path d="M12.0003 1.01475C7.49469 1.01475 3.21619 0.614272 1.58197 4.80508C0.906937 6.53596 1.00497 8.78387 1.00497 12.0026C1.00497 14.8271 0.914383 17.4816 1.58197 19.1989C3.21247 23.3922 7.52571 22.9905 11.9978 22.9905C16.3123 22.9905 20.7608 23.4393 22.4149 19.1989C23.0911 17.4507 22.9919 15.2362 22.9919 12.0026C22.9919 7.71013 23.2289 4.93899 21.1455 2.85846C19.036 0.750659 16.1832 1.01475 11.9953 1.01475H12.0003ZM11.015 2.99485C20.4133 2.97997 21.6095 1.93599 20.9494 16.4389C20.7149 21.5683 16.8061 21.0054 12.0015 21.0054C3.241 21.0054 2.98911 20.7549 2.98911 11.9976C2.98911 3.13867 3.68399 2.99981 11.015 2.99237V2.99485ZM17.8696 4.81872C17.1412 4.81872 16.5505 5.4089 16.5505 6.13671C16.5505 6.86452 17.1412 7.45471 17.8696 7.45471C18.598 7.45471 19.1886 6.86452 19.1886 6.13671C19.1886 5.4089 18.598 4.81872 17.8696 4.81872ZM12.0003 6.35989C8.88198 6.35989 6.35434 8.88678 6.35434 12.0026C6.35434 15.1184 8.88198 17.6441 12.0003 17.6441C15.1186 17.6441 17.645 15.1184 17.645 12.0026C17.645 8.88678 15.1186 6.35989 12.0003 6.35989ZM12.0003 8.33999C16.8459 8.33999 16.8521 15.6652 12.0003 15.6652C7.15593 15.6652 7.14849 8.33999 12.0003 8.33999Z" fill="#AFAFAE"/>
</svg>
