<?xml version="1.0" encoding="utf-8"?><svg xmlns="http://www.w3.org/2000/svg" xmlns:xlink="http://www.w3.org/1999/xlink"><symbol viewBox="0 0 20 20" id="dropDown" xmlns="http://www.w3.org/2000/svg"><path d="M2.93 7.054L10 14.125l7.07-7.07-1.178-1.18L10 11.768 4.107 5.875 2.93 7.055z"/></symbol><symbol viewBox="0 0 24 25" id="instagram" xmlns="http://www.w3.org/2000/svg"><path d="M12 1.015c-4.505 0-8.784-.4-10.418 3.79-.675 1.731-.577 3.979-.577 7.198 0 2.824-.09 5.479.577 7.196 1.63 4.193 5.944 3.791 10.416 3.791 4.314 0 8.763.45 10.417-3.791.676-1.748.577-3.963.577-7.196 0-4.293.237-7.064-1.847-9.145-2.109-2.107-4.962-1.843-9.15-1.843H12zm-.985 1.98c9.398-.015 10.595-1.059 9.934 13.444-.234 5.13-4.143 4.566-8.948 4.566-8.76 0-9.012-.25-9.012-9.007 0-8.86.695-8.998 8.026-9.006v.003zm6.855 1.824a1.319 1.319 0 10-.001 2.637 1.319 1.319 0 000-2.637zM12 6.359a5.645 5.645 0 00-5.646 5.644A5.644 5.644 0 0012 17.644 5.643 5.643 0 1012 6.36zm0 1.981c4.846 0 4.852 7.325 0 7.325-4.844 0-4.852-7.325 0-7.325z"/></symbol><symbol viewBox="0 0 42 20" id="next" xmlns="http://www.w3.org/2000/svg"><path d="M2.383 10.833h30.9l-1.11 4.542c2.396-2.19 4.682-4.125 7.61-5.375-2.928-1.25-5.214-3.184-7.61-5.375l1.11 4.542h-30.9v1.666z"/><path d="M2.383 10.833h30.9l-1.11 4.542c2.396-2.19 4.682-4.125 7.61-5.375-2.928-1.25-5.214-3.184-7.61-5.375l1.11 4.542h-30.9v1.666z"/></symbol><symbol viewBox="0 0 42 20" id="prev" xmlns="http://www.w3.org/2000/svg"><path d="M39.617 9.167h-30.9l1.11-4.542C7.43 6.815 5.145 8.75 2.217 10c2.928 1.25 5.214 3.184 7.61 5.375l-1.11-4.542h30.9V9.167z"/></symbol><symbol viewBox="0 0 20 20" id="search" xmlns="http://www.w3.org/2000/svg"><path fill-rule="evenodd" clip-rule="evenodd" d="M9.167 1.875a7.292 7.292 0 104.695 12.87l3.638 3.639.884-.884-3.638-3.638A7.292 7.292 0 009.167 1.875zM3.125 9.167a6.042 6.042 0 1112.083 0 6.042 6.042 0 01-12.083 0z"/></symbol><symbol viewBox="0 0 24 25" id="telegram" xmlns="http://www.w3.org/2000/svg"><path d="M1.931 10.61l17.737-6.526c.823-.284 1.542.192 1.276 1.38l.001-.002-3.02 13.576c-.224.963-.823 1.197-1.662.743l-4.599-3.234-2.218 2.04c-.245.233-.452.43-.927.43l.326-4.465 8.524-7.348c.37-.311-.083-.487-.572-.177L6.263 13.355l-4.54-1.351c-.986-.299-1.007-.941.208-1.394z"/></symbol><symbol viewBox="0 0 24 25" id="whatsapp" xmlns="http://www.w3.org/2000/svg"><path d="M19.81 4.166c-2.09-2.02-4.84-3.162-7.769-3.162-8.406 0-13.684 9.107-9.486 16.351L1 23.004l5.807-1.514c2.53 1.366 4.602 1.245 5.24 1.326 9.746 0 14.598-11.792 7.749-18.615l.014-.035z"/><path d="M12.061 20.942h-.02c-2.917 0-4.78-1.382-4.964-1.462l-3.437.894.921-3.341-.219-.344a9.046 9.046 0 01-1.39-4.822c0-8.06 9.85-12.09 15.55-6.393 5.686 5.637 1.694 15.468-6.44 15.468z"/><path d="M17.047 14.119l-.008.068c-.276-.137-1.62-.794-1.87-.885-.562-.208-.403-.033-1.482 1.203-.16.178-.32.192-.592.068-.275-.137-1.158-.426-2.203-1.361-.814-.729-1.36-1.623-1.522-1.897-.268-.464.294-.53.805-1.498.092-.193.045-.344-.023-.48-.068-.138-.616-1.486-.845-2.023-.22-.535-.446-.467-.616-.467-.528-.046-.914-.039-1.254.315-1.48 1.626-1.106 3.304.16 5.087 2.487 3.256 3.813 3.856 6.237 4.688.654.208 1.25.179 1.723.111.526-.083 1.62-.66 1.848-1.307.234-.646.234-1.182.165-1.306-.068-.124-.248-.193-.523-.316z"/></symbol></svg>