<?xml version="1.0" encoding="utf-8"?>
<!-- Generator: Adobe Illustrator 22.0.1, SVG Export Plug-In . SVG Version: 6.00 Build 0)  -->
<svg version="1.1" id="Слой_1" xmlns="http://www.w3.org/2000/svg" xmlns:xlink="http://www.w3.org/1999/xlink" x="0px" y="0px"
	 viewBox="0 0 168.4 3" style="enable-background:new 0 0 168.4 3;" width="168.4" height="3" xml:space="preserve">
<style type="text/css">
	.st0{fill:#7E7E7E;}
</style>
<path class="st0" d="M0.8,2.1C0.6,2.1,0.4,2,0.3,1.9C0.1,1.7,0,1.5,0,1.3s0.1-0.4,0.2-0.5c0.2-0.1,0.3-0.2,0.5-0.2
	c0.2,0,0.4,0.1,0.5,0.2c0.2,0.1,0.2,0.3,0.2,0.5S1.5,1.7,1.3,1.9C1.2,2,1,2.1,0.8,2.1z"/>
<path class="st0" d="M5.1,2.1C4.9,2.1,4.7,2,4.6,1.9C4.4,1.7,4.4,1.5,4.4,1.3s0.1-0.4,0.2-0.5c0.2-0.1,0.3-0.2,0.5-0.2
	s0.4,0.1,0.5,0.2c0.2,0.1,0.2,0.3,0.2,0.5S5.8,1.7,5.6,1.9C5.5,2,5.3,2.1,5.1,2.1z"/>
<path class="st0" d="M9.4,2.1C9.2,2.1,9.1,2,8.9,1.9C8.8,1.7,8.7,1.5,8.7,1.3s0.1-0.4,0.2-0.5c0.2-0.1,0.3-0.2,0.5-0.2
	c0.2,0,0.4,0.1,0.5,0.2c0.2,0.1,0.2,0.3,0.2,0.5S10.1,1.7,10,1.9C9.8,2,9.7,2.1,9.4,2.1z"/>
<path class="st0" d="M13.8,2.1c-0.2,0-0.4-0.1-0.5-0.2C13.1,1.7,13,1.5,13,1.3s0.1-0.4,0.2-0.5c0.2-0.1,0.3-0.2,0.5-0.2
	c0.2,0,0.4,0.1,0.5,0.2c0.2,0.1,0.2,0.3,0.2,0.5s-0.1,0.4-0.2,0.6C14.1,2,14,2.1,13.8,2.1z"/>
<path class="st0" d="M18.1,2.1c-0.2,0-0.4-0.1-0.5-0.2c-0.1-0.2-0.2-0.3-0.2-0.6s0.1-0.4,0.2-0.5c0.2-0.1,0.3-0.2,0.5-0.2
	s0.4,0.1,0.5,0.2c0.2,0.1,0.2,0.3,0.2,0.5s-0.1,0.4-0.2,0.6C18.5,2,18.3,2.1,18.1,2.1z"/>
<path class="st0" d="M22.4,2.1c-0.2,0-0.4-0.1-0.5-0.2c-0.1-0.2-0.2-0.3-0.2-0.6s0.1-0.4,0.2-0.5c0.2-0.1,0.3-0.2,0.5-0.2
	s0.4,0.1,0.5,0.2c0.2,0.1,0.2,0.3,0.2,0.5s-0.1,0.4-0.2,0.6C22.8,2,22.6,2.1,22.4,2.1z"/>
<path class="st0" d="M26.7,2.1c-0.2,0-0.4-0.1-0.5-0.2C26.1,1.7,26,1.5,26,1.3s0.1-0.4,0.2-0.5c0.2-0.1,0.3-0.2,0.5-0.2
	c0.2,0,0.4,0.1,0.5,0.2c0.2,0.1,0.2,0.3,0.2,0.5s-0.1,0.4-0.2,0.6C27.1,2,26.9,2.1,26.7,2.1z"/>
<path class="st0" d="M31.1,2.1c-0.2,0-0.4-0.1-0.5-0.2c-0.1-0.2-0.2-0.3-0.2-0.6s0.1-0.4,0.2-0.5c0.2-0.1,0.3-0.2,0.5-0.2
	s0.4,0.1,0.5,0.2c0.2,0.1,0.2,0.3,0.2,0.5s-0.1,0.4-0.2,0.6C31.4,2,31.3,2.1,31.1,2.1z"/>
<path class="st0" d="M35.4,2.1c-0.2,0-0.4-0.1-0.5-0.2c-0.1-0.2-0.2-0.3-0.2-0.6s0.1-0.4,0.2-0.5c0.2-0.1,0.3-0.2,0.5-0.2
	s0.4,0.1,0.5,0.2c0.2,0.1,0.2,0.3,0.2,0.5s-0.1,0.4-0.2,0.6C35.8,2,35.6,2.1,35.4,2.1z"/>
<path class="st0" d="M39.7,2.1c-0.2,0-0.4-0.1-0.5-0.2C39,1.7,39,1.5,39,1.3s0.1-0.4,0.2-0.5c0.2-0.1,0.3-0.2,0.5-0.2
	c0.2,0,0.4,0.1,0.5,0.2c0.2,0.1,0.2,0.3,0.2,0.5s-0.1,0.4-0.2,0.6C40.1,2,39.9,2.1,39.7,2.1z"/>
<path class="st0" d="M44,2.1c-0.2,0-0.4-0.1-0.5-0.2c-0.1-0.2-0.2-0.3-0.2-0.6s0.1-0.4,0.2-0.5c0.2-0.1,0.3-0.2,0.5-0.2
	c0.2,0,0.4,0.1,0.5,0.2c0.2,0.1,0.2,0.3,0.2,0.5s-0.1,0.4-0.2,0.6C44.4,2,44.2,2.1,44,2.1z"/>
<path class="st0" d="M48.4,2.1c-0.2,0-0.4-0.1-0.5-0.2c-0.1-0.2-0.2-0.3-0.2-0.6s0.1-0.4,0.2-0.5c0.2-0.1,0.3-0.2,0.5-0.2
	c0.2,0,0.4,0.1,0.5,0.2c0.2,0.1,0.2,0.3,0.2,0.5S49,1.7,48.9,1.9C48.7,2,48.6,2.1,48.4,2.1z"/>
<path class="st0" d="M52.7,2.1c-0.2,0-0.4-0.1-0.5-0.2c-0.1-0.2-0.2-0.3-0.2-0.6s0.1-0.4,0.2-0.5c0.2-0.1,0.3-0.2,0.5-0.2
	c0.2,0,0.4,0.1,0.5,0.2c0.2,0.1,0.2,0.3,0.2,0.5s-0.1,0.4-0.2,0.6C53.1,2,52.9,2.1,52.7,2.1z"/>
<path class="st0" d="M57,2.1c-0.2,0-0.4-0.1-0.5-0.2c-0.1-0.2-0.2-0.3-0.2-0.6s0.1-0.4,0.2-0.5c0.2-0.1,0.3-0.2,0.5-0.2
	s0.4,0.1,0.5,0.2c0.2,0.1,0.2,0.3,0.2,0.5s-0.1,0.4-0.2,0.6C57.4,2,57.2,2.1,57,2.1z"/>
<path class="st0" d="M61.3,2.1c-0.2,0-0.4-0.1-0.5-0.2c-0.1-0.2-0.2-0.3-0.2-0.6s0.1-0.4,0.2-0.5c0.2-0.1,0.3-0.2,0.5-0.2
	c0.2,0,0.4,0.1,0.5,0.2c0.2,0.1,0.2,0.3,0.2,0.5S62,1.7,61.9,1.9C61.7,2,61.5,2.1,61.3,2.1z"/>
<path class="st0" d="M65.7,2.1c-0.2,0-0.4-0.1-0.5-0.2c-0.1-0.2-0.2-0.3-0.2-0.6s0.1-0.4,0.2-0.5c0.2-0.1,0.3-0.2,0.5-0.2
	c0.2,0,0.4,0.1,0.5,0.2c0.2,0.1,0.2,0.3,0.2,0.5s-0.1,0.4-0.2,0.6C66,2,65.9,2.1,65.7,2.1z"/>
<path class="st0" d="M70,2.1c-0.2,0-0.4-0.1-0.5-0.2c-0.1-0.2-0.2-0.3-0.2-0.6s0.1-0.4,0.2-0.5c0.2-0.1,0.3-0.2,0.5-0.2
	c0.2,0,0.4,0.1,0.5,0.2c0.2,0.1,0.2,0.3,0.2,0.5s-0.1,0.4-0.2,0.6C70.4,2,70.2,2.1,70,2.1z"/>
<path class="st0" d="M74.3,2.1c-0.2,0-0.4-0.1-0.5-0.2c-0.1-0.2-0.2-0.3-0.2-0.6s0.1-0.4,0.2-0.5c0.2-0.1,0.3-0.2,0.5-0.2
	c0.2,0,0.4,0.1,0.5,0.2c0.2,0.1,0.2,0.3,0.2,0.5S75,1.7,74.8,1.9C74.7,2,74.5,2.1,74.3,2.1z"/>
<path class="st0" d="M78.6,2.1c-0.2,0-0.4-0.1-0.5-0.2c-0.1-0.2-0.2-0.3-0.2-0.6s0.1-0.4,0.2-0.5c0.2-0.1,0.3-0.2,0.5-0.2
	s0.4,0.1,0.5,0.2c0.2,0.1,0.2,0.3,0.2,0.5s-0.1,0.4-0.2,0.6C79,2,78.8,2.1,78.6,2.1z"/>
<path class="st0" d="M82.9,2.1c-0.2,0-0.4-0.1-0.5-0.2c-0.1-0.2-0.2-0.3-0.2-0.6s0.1-0.4,0.2-0.5c0.2-0.1,0.3-0.2,0.5-0.2
	s0.4,0.1,0.5,0.2c0.2,0.1,0.2,0.3,0.2,0.5s-0.1,0.4-0.2,0.6C83.3,2,83.2,2.1,82.9,2.1z"/>
<path class="st0" d="M87.3,2.1c-0.2,0-0.4-0.1-0.5-0.2c-0.1-0.2-0.2-0.3-0.2-0.6s0.1-0.4,0.2-0.5c0.2-0.1,0.3-0.2,0.5-0.2
	c0.2,0,0.4,0.1,0.5,0.2C87.9,0.9,88,1.1,88,1.3s-0.1,0.4-0.2,0.6C87.6,2,87.5,2.1,87.3,2.1z"/>
<path class="st0" d="M91.6,2.1c-0.2,0-0.4-0.1-0.5-0.2c-0.1-0.2-0.2-0.3-0.2-0.6s0.1-0.4,0.2-0.5c0.2-0.1,0.3-0.2,0.5-0.2
	c0.2,0,0.4,0.1,0.5,0.2c0.2,0.1,0.2,0.3,0.2,0.5s-0.1,0.4-0.2,0.6C92,2,91.8,2.1,91.6,2.1z"/>
<path class="st0" d="M95.9,2.1c-0.2,0-0.4-0.1-0.5-0.2c-0.1-0.2-0.2-0.3-0.2-0.6s0.1-0.4,0.2-0.5c0.2-0.1,0.3-0.2,0.5-0.2
	c0.2,0,0.4,0.1,0.5,0.2c0.2,0.1,0.2,0.3,0.2,0.5s-0.1,0.4-0.2,0.6C96.3,2,96.1,2.1,95.9,2.1z"/>
<path class="st0" d="M100.2,2.1c-0.2,0-0.4-0.1-0.5-0.2c-0.1-0.2-0.2-0.3-0.2-0.6s0.1-0.4,0.2-0.5c0.2-0.1,0.3-0.2,0.5-0.2
	c0.2,0,0.4,0.1,0.5,0.2c0.2,0.1,0.2,0.3,0.2,0.5s-0.1,0.4-0.2,0.6C100.6,2,100.4,2.1,100.2,2.1z"/>
<path class="st0" d="M104.6,2.1c-0.2,0-0.4-0.1-0.5-0.2c-0.1-0.2-0.2-0.3-0.2-0.6s0.1-0.4,0.2-0.5c0.2-0.1,0.3-0.2,0.5-0.2
	c0.2,0,0.4,0.1,0.5,0.2c0.2,0.1,0.2,0.3,0.2,0.5s-0.1,0.4-0.2,0.6C104.9,2,104.8,2.1,104.6,2.1z"/>
<path class="st0" d="M108.9,2.1c-0.2,0-0.4-0.1-0.5-0.2c-0.1-0.2-0.2-0.3-0.2-0.6s0.1-0.4,0.2-0.5c0.2-0.1,0.3-0.2,0.5-0.2
	s0.4,0.1,0.5,0.2c0.2,0.1,0.2,0.3,0.2,0.5s-0.1,0.4-0.2,0.6C109.3,2,109.1,2.1,108.9,2.1z"/>
<path class="st0" d="M113.2,2.1c-0.2,0-0.4-0.1-0.5-0.2c-0.1-0.2-0.2-0.3-0.2-0.6s0.1-0.4,0.2-0.5c0.2-0.1,0.3-0.2,0.5-0.2
	c0.2,0,0.4,0.1,0.5,0.2c0.2,0.1,0.2,0.3,0.2,0.5s-0.1,0.4-0.2,0.6C113.6,2,113.4,2.1,113.2,2.1z"/>
<path class="st0" d="M117.5,2.1c-0.2,0-0.4-0.1-0.5-0.2c-0.1-0.2-0.2-0.3-0.2-0.6s0.1-0.4,0.2-0.5c0.2-0.1,0.3-0.2,0.5-0.2
	c0.2,0,0.4,0.1,0.5,0.2c0.2,0.1,0.2,0.3,0.2,0.5s-0.1,0.4-0.2,0.6C117.9,2,117.7,2.1,117.5,2.1z"/>
<path class="st0" d="M121.9,2.1c-0.2,0-0.4-0.1-0.5-0.2c-0.1-0.2-0.2-0.3-0.2-0.6s0.1-0.4,0.2-0.5c0.2-0.1,0.3-0.2,0.5-0.2
	c0.2,0,0.4,0.1,0.5,0.2c0.2,0.1,0.2,0.3,0.2,0.5s-0.1,0.4-0.2,0.6C122.2,2,122.1,2.1,121.9,2.1z"/>
<path class="st0" d="M126.2,2.1c-0.2,0-0.4-0.1-0.5-0.2c-0.1-0.2-0.2-0.3-0.2-0.6s0.1-0.4,0.2-0.5c0.2-0.1,0.3-0.2,0.5-0.2
	s0.4,0.1,0.5,0.2c0.2,0.1,0.2,0.3,0.2,0.5s-0.1,0.4-0.2,0.6C126.6,2,126.4,2.1,126.2,2.1z"/>
<path class="st0" d="M130.5,2.1c-0.2,0-0.4-0.1-0.5-0.2c-0.1-0.2-0.2-0.3-0.2-0.6s0.1-0.4,0.2-0.5c0.2-0.1,0.3-0.2,0.5-0.2
	c0.2,0,0.4,0.1,0.5,0.2c0.2,0.1,0.2,0.3,0.2,0.5s-0.1,0.4-0.2,0.6C130.9,2,130.7,2.1,130.5,2.1z"/>
<path class="st0" d="M134.8,2.1c-0.2,0-0.4-0.1-0.5-0.2c-0.1-0.2-0.2-0.3-0.2-0.6s0.1-0.4,0.2-0.5c0.2-0.1,0.3-0.2,0.5-0.2
	c0.2,0,0.4,0.1,0.5,0.2c0.2,0.1,0.2,0.3,0.2,0.5s-0.1,0.4-0.2,0.6C135.2,2,135,2.1,134.8,2.1z"/>
<path class="st0" d="M139.2,2.1c-0.2,0-0.4-0.1-0.5-0.2c-0.1-0.2-0.2-0.3-0.2-0.6s0.1-0.4,0.2-0.5c0.2-0.1,0.3-0.2,0.5-0.2
	c0.2,0,0.4,0.1,0.5,0.2c0.2,0.1,0.2,0.3,0.2,0.5s-0.1,0.4-0.2,0.6C139.5,2,139.4,2.1,139.2,2.1z"/>
<path class="st0" d="M143.5,2.1c-0.2,0-0.4-0.1-0.5-0.2c-0.1-0.2-0.2-0.3-0.2-0.6s0.1-0.4,0.2-0.5c0.2-0.1,0.3-0.2,0.5-0.2
	s0.4,0.1,0.5,0.2c0.2,0.1,0.2,0.3,0.2,0.5s-0.1,0.4-0.2,0.6C143.9,2,143.7,2.1,143.5,2.1z"/>
<path class="st0" d="M147.8,2.1c-0.2,0-0.4-0.1-0.5-0.2c-0.1-0.2-0.2-0.3-0.2-0.6s0.1-0.4,0.2-0.5c0.2-0.1,0.3-0.2,0.5-0.2
	c0.2,0,0.4,0.1,0.5,0.2c0.2,0.1,0.2,0.3,0.2,0.5s-0.1,0.4-0.2,0.6C148.2,2,148,2.1,147.8,2.1z"/>
<path class="st0" d="M152.1,2.1c-0.2,0-0.4-0.1-0.5-0.2c-0.1-0.2-0.2-0.3-0.2-0.6s0.1-0.4,0.2-0.5c0.2-0.1,0.3-0.2,0.5-0.2
	s0.4,0.1,0.5,0.2c0.2,0.1,0.2,0.3,0.2,0.5s-0.1,0.4-0.2,0.6C152.5,2,152.3,2.1,152.1,2.1z"/>
<path class="st0" d="M156.4,2.1c-0.2,0-0.4-0.1-0.5-0.2c-0.1-0.2-0.2-0.3-0.2-0.6s0.1-0.4,0.2-0.5c0.2-0.1,0.3-0.2,0.5-0.2
	c0.2,0,0.4,0.1,0.5,0.2c0.2,0.1,0.2,0.3,0.2,0.5s-0.1,0.4-0.2,0.6C156.8,2,156.7,2.1,156.4,2.1z"/>
<path class="st0" d="M160.8,2.1c-0.2,0-0.4-0.1-0.5-0.2c-0.1-0.2-0.2-0.3-0.2-0.6s0.1-0.4,0.2-0.5c0.2-0.1,0.3-0.2,0.5-0.2
	c0.2,0,0.4,0.1,0.5,0.2c0.2,0.1,0.2,0.3,0.2,0.5s-0.1,0.4-0.2,0.6C161.1,2,161,2.1,160.8,2.1z"/>
<path class="st0" d="M165.1,2.1c-0.2,0-0.4-0.1-0.5-0.2c-0.1-0.2-0.2-0.3-0.2-0.6s0.1-0.4,0.2-0.5c0.2-0.1,0.3-0.2,0.5-0.2
	c0.2,0,0.4,0.1,0.5,0.2c0.2,0.1,0.2,0.3,0.2,0.5s-0.1,0.4-0.2,0.6C165.5,2,165.3,2.1,165.1,2.1z"/>
</svg>
