<svg width="197" height="134" viewBox="0 0 197 134" fill="none" xmlns="http://www.w3.org/2000/svg">
<g filter="url(#filter0_d_2_193)">
<path fill-rule="evenodd" clip-rule="evenodd" d="M23 13C20.7909 13 19 14.7909 19 17V94C19 96.2091 20.7909 98 23 98H81.1343L97.5 109L113.866 98H174C176.209 98 178 96.2091 178 94V17C178 14.7909 176.209 13 174 13H23Z" fill="#F8F5EF"/>
</g>
<rect x="29.5" y="24.5" width="138" height="63" fill="#F8F5EF" stroke="#1B1B1B"/>
<path d="M46 69.8995V62.1005H48.28C48.689 62.1005 49.0512 62.1582 49.3665 62.2736C49.6855 62.3852 49.9388 62.5378 50.1265 62.7313C50.3179 62.9211 50.4605 63.1333 50.5543 63.3678C50.6519 63.5985 50.7007 63.8404 50.7007 64.0935C50.7007 64.4992 50.6031 64.8379 50.4079 65.1096C50.2128 65.3813 49.9107 65.599 49.5016 65.7627V65.7851C50.0908 65.893 50.5524 66.1275 50.8864 66.4885C51.2242 66.8495 51.3931 67.2924 51.3931 67.8172C51.3931 68.0181 51.3631 68.2135 51.303 68.4033C51.243 68.5932 51.1435 68.7811 51.0047 68.9672C50.8696 69.1496 50.7007 69.3096 50.498 69.4473C50.2953 69.5813 50.0383 69.6911 49.7268 69.7767C49.419 69.8586 49.0756 69.8995 48.6966 69.8995H46ZM47.1259 63.1054V65.4389H47.8746C48.9818 65.4389 49.5354 65.024 49.5354 64.194C49.5354 63.8702 49.4284 63.6078 49.2145 63.4068C49.0005 63.2059 48.6515 63.1054 48.1674 63.1054H47.1259ZM47.1259 66.4494V68.8946H48.5446C48.8598 68.8946 49.1319 68.8593 49.3608 68.7886C49.5935 68.7141 49.7699 68.6155 49.89 68.4927C50.0101 68.3699 50.0964 68.2396 50.149 68.1019C50.2015 67.9642 50.2278 67.8172 50.2278 67.6609C50.2278 67.2924 50.0814 66.9984 49.7887 66.7788C49.4959 66.5592 49.0625 66.4494 48.4883 66.4494H47.1259Z" fill="#1B1B1B"/>
<path d="M56.3775 62.0558L59.896 69.8995H58.7419L57.6948 67.5994H54.3509L53.3601 69.8995H52.206L55.5837 62.0558H56.3775ZM55.9665 63.7697L54.79 66.5946H57.2332L55.9665 63.7697Z" fill="#1B1B1B"/>
<path d="M68.2299 66.0586V69.3636C67.7083 69.5906 67.2166 69.7544 66.755 69.8548C66.2934 69.9516 65.7867 70 65.235 70C64.4431 70 63.7263 69.8307 63.0845 69.492C62.4465 69.1533 61.9474 68.6825 61.5871 68.0796C61.2268 67.4766 61.0466 66.7993 61.0466 66.0475C61.0466 65.4817 61.1536 64.9495 61.3675 64.4508C61.5852 63.9484 61.8798 63.5185 62.2514 63.1612C62.6267 62.8002 63.0752 62.5173 63.5968 62.3126C64.1223 62.1042 64.6796 62 65.2688 62C65.7304 62 66.1583 62.0465 66.5523 62.1396C66.9502 62.2326 67.4568 62.4075 68.0723 62.6643V63.792C67.1341 63.2822 66.192 63.0272 65.2463 63.0272C64.6871 63.0272 64.1748 63.1575 63.7094 63.418C63.244 63.6785 62.8781 64.0377 62.6117 64.4955C62.3452 64.9532 62.212 65.4594 62.212 66.014C62.212 66.8811 62.5084 67.592 63.1014 68.1465C63.6944 68.6974 64.4581 68.9728 65.3927 68.9728C65.8956 68.9728 66.466 68.8704 67.104 68.6657V67.0635H65.5897V66.0586H68.2299Z" fill="#1B1B1B"/>
<path d="M74.1826 62.5471V63.8144C73.6084 63.2747 72.9929 63.0049 72.3361 63.0049C71.9721 63.0049 71.6737 63.0923 71.441 63.2673C71.2083 63.4385 71.092 63.6599 71.092 63.9316C71.092 64.1326 71.1539 64.3187 71.2778 64.4899C71.4054 64.6611 71.5686 64.8118 71.7675 64.9421C71.9665 65.0723 72.186 65.2026 72.4262 65.3329C72.6702 65.4631 72.9122 65.6083 73.1524 65.7683C73.3964 65.9246 73.6178 66.0958 73.8167 66.2819C74.0156 66.4643 74.177 66.695 74.3008 66.9742C74.4284 67.2496 74.4922 67.5548 74.4922 67.8897C74.4922 68.5001 74.284 69.0044 73.8674 69.4027C73.4508 69.8009 72.9254 70 72.2911 70C71.4692 70 70.7355 69.7599 70.0899 69.2798V67.8618C70.3789 68.2266 70.6998 68.5076 71.0526 68.7048C71.4091 68.8983 71.7807 68.9951 72.1672 68.9951C72.5726 68.9951 72.886 68.8946 73.1074 68.6937C73.3326 68.489 73.4452 68.2619 73.4452 68.0126C73.4452 67.7967 73.3814 67.5939 73.2537 67.404C73.1299 67.2142 72.9685 67.0468 72.7696 66.9016C72.5707 66.7527 72.3493 66.6076 72.1053 66.4662C71.8651 66.321 71.6231 66.1703 71.3791 66.014C71.1389 65.8576 70.9194 65.692 70.7205 65.5171C70.5215 65.3422 70.3583 65.1319 70.2307 64.8863C70.1068 64.6406 70.0449 64.3726 70.0449 64.0823C70.0449 63.4496 70.2626 62.9453 70.6979 62.5694C71.1333 62.1898 71.7113 62 72.4318 62C73.0511 62 73.6347 62.1824 74.1826 62.5471Z" fill="#1B1B1B"/>
<path d="M84.9339 66.0251H86.0598C85.951 66.3415 85.784 66.6802 85.5588 67.0412C85.3336 67.3985 85.0747 67.7409 84.7819 68.0684L86.3751 69.8995H84.9227L84.0219 68.8388C83.1625 69.6129 82.3331 70 81.5337 70C80.9932 70 80.526 69.8214 80.1319 69.4641C79.7416 69.103 79.5465 68.6657 79.5465 68.1521C79.5465 67.3296 80.1657 66.5629 81.4042 65.8521C80.8112 65.2342 80.5147 64.6313 80.5147 64.0433C80.5147 63.4999 80.6986 63.0663 81.0664 62.7425C81.4342 62.415 81.924 62.2512 82.5357 62.2512C83.0837 62.2512 83.5359 62.4131 83.8925 62.7369C84.249 63.0607 84.4273 63.4627 84.4273 63.9428C84.4273 64.3187 84.3128 64.6722 84.0839 65.0035C83.8587 65.331 83.4928 65.6716 82.9861 66.0251L84.0895 67.2812C84.2434 67.1286 84.3991 66.9332 84.5567 66.695C84.7181 66.4531 84.8439 66.2298 84.9339 66.0251ZM83.3295 68.0572L82.0516 66.5946C81.5675 66.896 81.2165 67.1603 80.9989 67.3873C80.785 67.6143 80.678 67.8693 80.678 68.1521C80.6968 68.3754 80.8 68.569 80.9876 68.7327C81.1753 68.8928 81.3948 68.9728 81.6463 68.9728C82.1529 68.9728 82.714 68.6676 83.3295 68.0572ZM81.6238 63.9428C81.6238 64.1624 81.6951 64.3931 81.8377 64.635C81.984 64.8732 82.1548 65.0854 82.35 65.2715C82.7478 65.0258 83.018 64.8081 83.1606 64.6183C83.3032 64.4248 83.3745 64.2182 83.3745 63.9986C83.3745 63.7679 83.2901 63.578 83.1212 63.4292C82.9523 63.2766 82.7384 63.2003 82.4794 63.2003C82.2355 63.2003 82.031 63.271 81.8658 63.4124C81.7044 63.5538 81.6238 63.7306 81.6238 63.9428Z" fill="#1B1B1B"/>
<path d="M98.3536 62.642V63.8423C97.4116 63.2989 96.509 63.0272 95.6458 63.0272C94.7488 63.0272 94.002 63.3119 93.4053 63.8814C92.8085 64.4471 92.5102 65.1579 92.5102 66.014C92.5102 66.8886 92.8029 67.6013 93.3884 68.1521C93.9776 68.6992 94.7451 68.9728 95.6909 68.9728C96.6028 68.9728 97.5186 68.6788 98.4381 68.0907V69.3189C98.014 69.5385 97.5768 69.7078 97.1264 69.8269C96.6798 69.9423 96.1675 70 95.5895 70C95.0228 70 94.4993 69.9181 94.0189 69.7544C93.5385 69.5869 93.1369 69.371 92.8142 69.1068C92.4952 68.8388 92.2212 68.5336 91.9922 68.1912C91.7671 67.8451 91.6019 67.4971 91.4968 67.1472C91.3955 66.7974 91.3448 66.4531 91.3448 66.1144C91.3448 65.3329 91.5287 64.6294 91.8965 64.0042C92.2681 63.3752 92.7823 62.8839 93.439 62.5304C94.0958 62.1768 94.8352 62 95.6571 62C96.4302 62 97.3291 62.214 98.3536 62.642Z" fill="#1B1B1B"/>
<path d="M101.514 62.1005V68.8946H105.066V69.8995H100.388V62.1005H101.514Z" fill="#1B1B1B"/>
<path d="M113.231 62.1005V66.8346C113.231 67.8172 112.935 68.5913 112.342 69.157C111.749 69.719 110.882 70 109.741 70C109.403 70 109.077 69.9628 108.762 69.8883C108.45 69.8139 108.154 69.6967 107.872 69.5366C107.591 69.3766 107.347 69.1793 107.14 68.9449C106.934 68.7104 106.769 68.4238 106.645 68.0851C106.525 67.7427 106.465 67.365 106.465 66.9518V62.1005H107.596V66.7118C107.596 67.1472 107.63 67.4785 107.698 67.7055C107.765 67.9288 107.889 68.1298 108.069 68.3084C108.516 68.7513 109.081 68.9728 109.764 68.9728C110.567 68.9728 111.18 68.7625 111.604 68.3419C111.796 68.1521 111.925 67.9214 111.993 67.6497C112.064 67.378 112.1 67.0412 112.1 66.6392V62.1005H113.231Z" fill="#1B1B1B"/>
<path d="M121.267 62.1005V63.1054H118.548V69.8995H117.416V63.1054H114.697V62.1005H121.267Z" fill="#1B1B1B"/>
<path d="M129.595 62.642V63.8423C128.653 63.2989 127.751 63.0272 126.888 63.0272C125.991 63.0272 125.244 63.3119 124.647 63.8814C124.05 64.4471 123.752 65.1579 123.752 66.014C123.752 66.8886 124.045 67.6013 124.63 68.1521C125.219 68.6992 125.987 68.9728 126.933 68.9728C127.845 68.9728 128.76 68.6788 129.68 68.0907V69.3189C129.256 69.5385 128.818 69.7078 128.368 69.8269C127.922 69.9423 127.409 70 126.831 70C126.265 70 125.741 69.9181 125.261 69.7544C124.78 69.5869 124.379 69.371 124.056 69.1068C123.737 68.8388 123.463 68.5336 123.234 68.1912C123.009 67.8451 122.844 67.4971 122.739 67.1472C122.637 66.7974 122.587 66.4531 122.587 66.1144C122.587 65.3329 122.77 64.6294 123.138 64.0042C123.51 63.3752 124.024 62.8839 124.681 62.5304C125.338 62.1768 126.077 62 126.899 62C127.672 62 128.571 62.214 129.595 62.642Z" fill="#1B1B1B"/>
<path d="M138.301 62.1005V69.8995H137.175V66.5052H132.767V69.8995H131.641V62.1005H132.767V65.5003H137.175V62.1005H138.301Z" fill="#1B1B1B"/>
<path d="M145.075 62.1005V63.1054H141.743V65.4613H144.963V66.4717H141.743V68.8946H145.182V69.8995H140.617V62.1005H145.075Z" fill="#1B1B1B"/>
<path d="M150.69 62.5471V63.8144C150.116 63.2747 149.501 63.0049 148.844 63.0049C148.48 63.0049 148.181 63.0923 147.949 63.2673C147.716 63.4385 147.6 63.6599 147.6 63.9316C147.6 64.1326 147.662 64.3187 147.786 64.4899C147.913 64.6611 148.076 64.8118 148.275 64.9421C148.474 65.0723 148.694 65.2026 148.934 65.3329C149.178 65.4631 149.42 65.6083 149.66 65.7683C149.904 65.9246 150.126 66.0958 150.324 66.2819C150.523 66.4643 150.685 66.695 150.809 66.9742C150.936 67.2496 151 67.5548 151 67.8897C151 68.5001 150.792 69.0044 150.375 69.4027C149.959 69.8009 149.433 70 148.799 70C147.977 70 147.243 69.7599 146.598 69.2798V67.8618C146.887 68.2266 147.208 68.5076 147.56 68.7048C147.917 68.8983 148.288 68.9951 148.675 68.9951C149.08 68.9951 149.394 68.8946 149.615 68.6937C149.84 68.489 149.953 68.2619 149.953 68.0126C149.953 67.7967 149.889 67.5939 149.761 67.404C149.638 67.2142 149.476 67.0468 149.277 66.9016C149.078 66.7527 148.857 66.6076 148.613 66.4662C148.373 66.321 148.131 66.1703 147.887 66.014C147.647 65.8576 147.427 65.692 147.228 65.5171C147.029 65.3422 146.866 65.1319 146.738 64.8863C146.615 64.6406 146.553 64.3726 146.553 64.0823C146.553 63.4496 146.77 62.9453 147.206 62.5694C147.641 62.1898 148.219 62 148.94 62C149.559 62 150.142 62.1824 150.69 62.5471Z" fill="#1B1B1B"/>
<path d="M46 41.1869H48.9592V45H58.0328V41.1869H61.0013V55.7944H58.0328V47.5327H48.9592V55.7944H46V41.1869Z" fill="#1B1B1B"/>
<path d="M65.1461 41.1869H77.5709V43.785H68.1053V46.7009H76.4881V49.1402H68.1053V53.2056H77.767V55.7944H65.1461V41.1869Z" fill="#1B1B1B"/>
<path d="M81.0529 41.1869H88.4742C89.5944 41.1869 90.5653 41.3053 91.3867 41.5421C92.2082 41.7726 92.8897 42.109 93.4311 42.5514C93.9725 42.9938 94.3739 43.5327 94.6353 44.1682C94.9029 44.8037 95.0367 45.5234 95.0367 46.3271C95.0367 46.8692 94.9714 47.3863 94.8407 47.8785C94.71 48.3645 94.5077 48.8131 94.2339 49.2243C93.9663 49.6355 93.6271 50.0031 93.2164 50.3271C92.8057 50.6449 92.3233 50.9097 91.7695 51.1215L94.9434 55.7944H91.3214L88.5769 51.6449H88.4929L84.0121 51.6355V55.7944H81.0529V41.1869ZM88.5489 49.0748C89.109 49.0748 89.5975 49.0093 90.0145 48.8785C90.4377 48.7477 90.7893 48.5639 91.0693 48.3271C91.3556 48.0903 91.5672 47.8037 91.7041 47.4673C91.8473 47.1246 91.9188 46.7445 91.9188 46.3271C91.9188 45.5109 91.6388 44.8816 91.0787 44.4393C90.5186 43.9907 89.6753 43.7664 88.5489 43.7664H84.0121V49.0748H88.5489Z" fill="#1B1B1B"/>
<path d="M98.556 41.1869H101.515L106.817 46.514L112.12 41.1869H115.079V55.7944H112.12V45.2897L106.817 50.4019L101.515 45.2897V55.7944H98.556V41.1869Z" fill="#1B1B1B"/>
<path d="M119.233 41.1869H131.658V43.785H122.192V46.7009H130.575V49.1402H122.192V53.2056H131.854V55.7944H119.233V41.1869Z" fill="#1B1B1B"/>
<path d="M135.821 51.4486C136.35 51.7477 136.885 52.0187 137.427 52.2617C137.975 52.4984 138.541 52.7009 139.126 52.8692C139.711 53.0312 140.324 53.1558 140.965 53.243C141.612 53.3302 142.3 53.3738 143.028 53.3738C143.905 53.3738 144.652 53.3178 145.268 53.2056C145.884 53.0872 146.385 52.9283 146.771 52.729C147.163 52.5234 147.446 52.2804 147.621 52C147.801 51.7196 147.891 51.4143 147.891 51.0841C147.891 50.5545 147.671 50.1371 147.229 49.8318C146.787 49.5202 146.105 49.3645 145.184 49.3645C144.78 49.3645 144.353 49.3925 143.905 49.4486C143.457 49.4984 143.003 49.5545 142.542 49.6168C142.088 49.6791 141.637 49.7383 141.189 49.7944C140.747 49.8442 140.33 49.8692 139.938 49.8692C139.285 49.8692 138.656 49.785 138.052 49.6168C137.455 49.4486 136.923 49.1963 136.456 48.8598C135.996 48.5234 135.628 48.1028 135.355 47.5981C135.081 47.0935 134.944 46.5047 134.944 45.8318C134.944 45.433 134.997 45.0374 135.103 44.6449C135.215 44.2523 135.389 43.8785 135.625 43.5234C135.868 43.162 136.179 42.8287 136.559 42.5234C136.938 42.2118 137.396 41.9439 137.931 41.7196C138.472 41.4953 139.095 41.3209 139.798 41.1963C140.507 41.0654 141.313 41 142.216 41C142.869 41 143.526 41.0374 144.185 41.1121C144.845 41.1807 145.486 41.2804 146.108 41.4112C146.737 41.5421 147.341 41.7009 147.919 41.8879C148.498 42.0685 149.037 42.271 149.534 42.4953L148.237 44.8879C147.826 44.7072 147.384 44.5421 146.911 44.3925C146.438 44.2368 145.944 44.1028 145.427 43.9907C144.91 43.8785 144.375 43.7913 143.821 43.729C143.274 43.6604 142.714 43.6262 142.141 43.6262C141.326 43.6262 140.654 43.6854 140.125 43.8037C139.602 43.9221 139.185 44.0748 138.874 44.2617C138.563 44.4424 138.345 44.648 138.22 44.8785C138.102 45.1028 138.043 45.3271 138.043 45.5514C138.043 45.9875 138.239 46.3458 138.631 46.6262C139.023 46.9003 139.621 47.0374 140.423 47.0374C140.747 47.0374 141.117 47.0156 141.534 46.972C141.958 46.9221 142.399 46.8692 142.86 46.8131C143.327 46.757 143.8 46.7072 144.279 46.6636C144.764 46.6137 145.234 46.5888 145.688 46.5888C146.547 46.5888 147.306 46.6854 147.966 46.8785C148.632 47.0717 149.189 47.3489 149.637 47.7103C150.085 48.0654 150.424 48.4984 150.655 49.0093C150.885 49.514 151 50.081 151 50.7103C151 51.5514 150.804 52.3022 150.412 52.9626C150.026 53.6168 149.472 54.1713 148.75 54.6262C148.035 55.0748 147.17 55.4174 146.155 55.6542C145.141 55.8847 144.011 56 142.767 56C141.945 56 141.142 55.947 140.358 55.8411C139.574 55.7414 138.821 55.5981 138.099 55.4112C137.383 55.2181 136.699 54.9907 136.045 54.729C135.398 54.4611 134.798 54.1682 134.244 53.8505L135.821 51.4486Z" fill="#1B1B1B"/>
<defs>
<filter id="filter0_d_2_193" x="0" y="0" width="197" height="134" filterUnits="userSpaceOnUse" color-interpolation-filters="sRGB">
<feFlood flood-opacity="0" result="BackgroundImageFix"/>
<feColorMatrix in="SourceAlpha" type="matrix" values="0 0 0 0 0 0 0 0 0 0 0 0 0 0 0 0 0 0 127 0" result="hardAlpha"/>
<feOffset dy="6"/>
<feGaussianBlur stdDeviation="9.5"/>
<feComposite in2="hardAlpha" operator="out"/>
<feColorMatrix type="matrix" values="0 0 0 0 0 0 0 0 0 0 0 0 0 0 0 0 0 0 0.16 0"/>
<feBlend mode="normal" in2="BackgroundImageFix" result="effect1_dropShadow_2_193"/>
<feBlend mode="normal" in="SourceGraphic" in2="effect1_dropShadow_2_193" result="shape"/>
</filter>
</defs>
</svg>
