<svg width="62" height="25" viewBox="0 0 62 25" fill="none" xmlns="http://www.w3.org/2000/svg">
<path d="M0 6.96837C3.53802 6.87866 7.07605 6.65999 10.6085 6.7497C12.5485 6.80016 14.5278 7.36086 15.2791 9.54199C16.0024 11.639 15.1221 13.2707 12.5205 14.7902C14.1521 15.2611 15.5819 15.8723 15.9912 17.6834C16.5855 20.3131 15.5258 22.5447 12.8064 23.1446C10.1935 23.7165 7.45172 23.7894 4.76035 23.8903C3.17918 23.9576 1.58678 23.6436 0 23.4922C0 17.9862 0 12.4745 0 6.96837ZM4.36226 16.276C4.36226 17.4423 4.42393 18.2721 4.34543 19.0795C4.2389 20.1897 4.75475 20.5822 5.78644 20.5149C7.16015 20.4252 8.58994 20.5149 9.89077 20.1617C10.6085 19.9654 11.6177 18.9954 11.5897 18.4123C11.5617 17.7787 10.5636 16.8087 9.85152 16.6685C8.14699 16.3321 6.36396 16.3938 4.36226 16.276ZM4.36226 13.9042C6.35274 13.7416 8.11335 13.7136 9.81788 13.3828C10.3842 13.2707 11.0907 12.4184 11.186 11.8184C11.2533 11.3923 10.4627 10.4559 9.95805 10.383C8.1582 10.1083 6.31349 10.1083 4.36226 9.99616C4.36226 10.9437 4.36226 11.4876 4.36226 12.0315C4.36226 12.5193 4.36226 13.0071 4.36226 13.9042Z" fill="#AFAFAE"/>
<path d="M40.9817 16.6798C40.2528 20.1506 45.8598 22.2756 51.3995 19.2198C51.8369 20.0833 52.2686 20.9412 52.6835 21.7654C49.5829 24.8829 42.2265 24.9446 38.952 21.9616C35.6999 19.0011 35.4027 12.7325 38.3464 9.26737C41.1107 6.01531 47.4186 5.35368 50.8164 7.96655C52.9807 9.63183 54.0909 13.3549 53.0648 15.9117C52.9134 16.2874 52.1677 16.635 51.6855 16.6462C48.6914 16.7135 45.6972 16.6798 42.6975 16.6798C42.1143 16.6798 41.5256 16.6798 40.9817 16.6798ZM49.1736 13.3773C48.9156 10.7476 47.6316 9.72154 45.0244 9.87854C42.6134 10.0243 41.0602 11.4036 41.1331 13.3773C43.774 13.3773 46.4149 13.3773 49.1736 13.3773Z" fill="#AFAFAE"/>
<path d="M33.8383 13.4732C32.5543 13.4732 31.4553 13.4732 30.3339 13.4732C30.2778 13.1873 30.2161 12.9798 30.2049 12.7668C30.0479 10.1651 29.7956 9.95764 27.1547 10.2716C24.5306 10.5856 22.7644 12.5873 22.7868 15.2394C22.8093 17.9925 24.6259 20.1736 27.3061 20.196C29.2405 20.2129 31.1805 19.7082 33.3953 19.3942C33.6476 19.9549 34.0962 20.9418 34.5391 21.9118C31.5955 24.777 24.6091 24.9452 21.2281 22.2482C17.976 19.6578 17.2135 13.8713 19.6862 10.1819C21.6767 7.21581 24.7213 6.2514 28.0686 6.41401C29.9582 6.50372 32.1281 6.8065 33.5579 7.83819C34.3317 8.39889 33.8383 10.7034 33.8943 12.2229C33.9111 12.5985 33.8663 12.9742 33.8383 13.4732Z" fill="#AFAFAE"/>
<path d="M59.2552 18.9516C60.8476 18.9291 61.9465 19.8991 61.997 21.3682C62.0531 22.9774 61.0326 24.0315 59.3729 24.0708C57.7245 24.11 56.6087 23.0615 56.6143 21.4859C56.6255 19.9888 57.674 18.9796 59.2552 18.9516Z" fill="#AFAFAE"/>
<path d="M52.1958 2.41592C52.2182 3.81207 51.1416 4.88301 49.6782 4.91665C48.2092 4.95029 47.127 3.92981 47.1158 2.49442C47.1046 1.03099 48.1251 0.0105132 49.6053 0.00490619C51.0968 -0.000700824 52.1677 1.00295 52.1958 2.41592Z" fill="#AFAFAE"/>
<path d="M40.7741 0.00505884C42.3273 -0.0285832 43.2973 0.874146 43.3309 2.38243C43.3702 3.89633 42.417 4.89437 40.9143 4.92241C39.4004 4.95044 38.3631 3.98604 38.3295 2.52821C38.3071 1.03675 39.2715 0.0387009 40.7741 0.00505884Z" fill="#AFAFAE"/>
</svg>
