<svg width="128" height="36" viewBox="0 0 128 36" fill="none" xmlns="http://www.w3.org/2000/svg">
<path d="M1 35.5573V26.1216H3.73548C4.22629 26.1216 4.66082 26.1914 5.03906 26.331C5.4218 26.466 5.72574 26.6507 5.95088 26.8848C6.18053 27.1145 6.35164 27.3711 6.46421 27.6548C6.58128 27.934 6.63982 28.2267 6.63982 28.5329C6.63982 29.0237 6.52274 29.4334 6.2886 29.7621C6.05445 30.0908 5.69197 30.3543 5.20116 30.5524V30.5794C5.90811 30.71 6.46196 30.9937 6.86271 31.4304C7.26797 31.8672 7.47059 32.4031 7.47059 33.038C7.47059 33.2811 7.43457 33.5175 7.36253 33.7472C7.29048 33.9768 7.17115 34.2042 7.00455 34.4293C6.84245 34.65 6.63982 34.8436 6.39666 35.0102C6.15351 35.1723 5.84507 35.3051 5.47133 35.4087C5.1021 35.5078 4.69008 35.5573 4.2353 35.5573H1ZM2.35085 27.3373V30.1606H3.24917C4.57751 30.1606 5.24168 29.6586 5.24168 28.6544C5.24168 28.2627 5.11335 27.9452 4.85669 27.7021C4.60003 27.4589 4.18126 27.3373 3.6004 27.3373H2.35085ZM2.35085 31.3832V34.3415H4.05293C4.43117 34.3415 4.75763 34.2988 5.0323 34.2132C5.31148 34.1231 5.52311 34.0038 5.6672 33.8552C5.81129 33.7066 5.91486 33.549 5.9779 33.3824C6.04094 33.2158 6.07246 33.038 6.07246 32.8488C6.07246 32.4031 5.89685 32.0473 5.54563 31.7817C5.1944 31.516 4.67432 31.3832 3.98539 31.3832H2.35085Z" fill="#1B1B1B"/>
<path d="M13.4508 26.0675L17.6722 35.5573H16.2876L15.0313 32.7745H11.0193L9.83054 35.5573H8.44591L12.4985 26.0675H13.4508ZM12.9578 28.1411L11.5461 31.5588H14.4775L12.9578 28.1411Z" fill="#1B1B1B"/>
<path d="M27.6713 30.9104V34.9089C27.0454 35.1836 26.4555 35.3817 25.9017 35.5033C25.3478 35.6203 24.7399 35.6789 24.078 35.6789C23.1279 35.6789 22.2679 35.474 21.4979 35.0642C20.7324 34.6545 20.1335 34.0849 19.7012 33.3554C19.269 32.6259 19.0528 31.8064 19.0528 30.8968C19.0528 30.2124 19.1812 29.5685 19.4378 28.9651C19.699 28.3572 20.0525 27.8372 20.4982 27.4049C20.9485 26.9681 21.4866 26.6259 22.1125 26.3782C22.7429 26.1261 23.4116 26 24.1185 26C24.6724 26 25.1857 26.0563 25.6585 26.1689C26.1358 26.2814 26.7437 26.4931 27.4822 26.8038V28.1681C26.3564 27.5512 25.2262 27.2428 24.0915 27.2428C23.4206 27.2428 22.8059 27.4004 22.2476 27.7156C21.6892 28.0308 21.2502 28.4653 20.9305 29.0192C20.6108 29.573 20.451 30.1854 20.451 30.8563C20.451 31.9055 20.8067 32.7655 21.5181 33.4365C22.2296 34.1029 23.1459 34.4361 24.2671 34.4361C24.8705 34.4361 25.5549 34.3123 26.3204 34.0646V32.1261H24.5035V30.9104H27.6713Z" fill="#1B1B1B"/>
<path d="M34.8132 26.6619V28.1951C34.1243 27.5422 33.3858 27.2158 32.5978 27.2158C32.1611 27.2158 31.8031 27.3216 31.5239 27.5332C31.2447 27.7404 31.1052 28.0083 31.1052 28.337C31.1052 28.5801 31.1794 28.8053 31.328 29.0124C31.4811 29.2195 31.677 29.4019 31.9157 29.5595C32.1543 29.7171 32.4177 29.8747 32.7059 30.0323C32.9986 30.1899 33.289 30.3655 33.5772 30.5591C33.8699 30.7483 34.1356 30.9554 34.3742 31.1805C34.6129 31.4012 34.8065 31.6803 34.9551 32.0181C35.1082 32.3513 35.1847 32.7205 35.1847 33.1258C35.1847 33.8642 34.9348 34.4744 34.435 34.9562C33.9352 35.438 33.3048 35.6789 32.5438 35.6789C31.5577 35.6789 30.6774 35.3884 29.9029 34.8076V33.092C30.2496 33.5333 30.6346 33.8732 31.0579 34.1119C31.4856 34.346 31.9314 34.4631 32.3952 34.4631C32.8815 34.4631 33.2575 34.3415 33.5232 34.0984C33.7934 33.8507 33.9284 33.576 33.9284 33.2744C33.9284 33.0132 33.8519 32.7678 33.6988 32.5381C33.5502 32.3085 33.3566 32.1059 33.1179 31.9303C32.8793 31.7501 32.6136 31.5745 32.3209 31.4034C32.0327 31.2278 31.7423 31.0454 31.4496 30.8563C31.1614 30.6672 30.898 30.4668 30.6594 30.2552C30.4207 30.0436 30.2248 29.7891 30.0717 29.492C29.9232 29.1948 29.8489 28.8706 29.8489 28.5193C29.8489 27.7539 30.11 27.1437 30.6324 26.6889C31.1547 26.2296 31.8481 26 32.7127 26C33.4556 26 34.1558 26.2206 34.8132 26.6619Z" fill="#1B1B1B"/>
<path d="M47.7126 30.8698H49.0634C48.9328 31.2526 48.7325 31.6623 48.4623 32.0991C48.1921 32.5314 47.8814 32.9456 47.5302 33.3419L49.4417 35.5573H47.699L46.6184 34.274C45.5872 35.2106 44.5921 35.6789 43.633 35.6789C42.9846 35.6789 42.424 35.4627 41.9512 35.0305C41.4829 34.5937 41.2487 34.0646 41.2487 33.4432C41.2487 32.4481 41.9917 31.5205 43.4776 30.6604C42.7662 29.913 42.4104 29.1835 42.4104 28.4721C42.4104 27.8146 42.6311 27.2901 43.0724 26.8983C43.5136 26.5021 44.1013 26.3039 44.8352 26.3039C45.4927 26.3039 46.0352 26.4998 46.463 26.8916C46.8908 27.2833 47.1047 27.7696 47.1047 28.3505C47.1047 28.8053 46.9673 29.233 46.6927 29.6338C46.4225 30.03 45.9835 30.4421 45.3756 30.8698L46.6994 32.3895C46.884 32.2049 47.0709 31.9685 47.26 31.6803C47.4536 31.3877 47.6045 31.1175 47.7126 30.8698ZM45.7876 33.3284L44.2544 31.5588C43.6735 31.9235 43.2525 32.2432 42.9913 32.5179C42.7347 32.7925 42.6063 33.101 42.6063 33.4432C42.6288 33.7134 42.7527 33.9475 42.9778 34.1457C43.203 34.3393 43.4664 34.4361 43.7681 34.4361C44.3759 34.4361 45.0491 34.0669 45.7876 33.3284ZM43.741 28.3505C43.741 28.6162 43.8266 28.8953 43.9977 29.188C44.1733 29.4762 44.3782 29.7329 44.6123 29.958C45.0896 29.6608 45.4139 29.3974 45.585 29.1678C45.7561 28.9336 45.8416 28.6837 45.8416 28.418C45.8416 28.1389 45.7403 27.9092 45.5377 27.7291C45.3351 27.5445 45.0784 27.4522 44.7677 27.4522C44.475 27.4522 44.2296 27.5377 44.0315 27.7088C43.8379 27.8799 43.741 28.0938 43.741 28.3505Z" fill="#1B1B1B"/>
<path d="M63.8134 26.7767V28.2289C62.6832 27.5715 61.6002 27.2428 60.5646 27.2428C59.4884 27.2428 58.5923 27.5873 57.8764 28.2762C57.1604 28.9606 56.8025 29.8207 56.8025 30.8563C56.8025 31.9145 57.1537 32.7768 57.8561 33.4432C58.5631 34.1051 59.4839 34.4361 60.6186 34.4361C61.7128 34.4361 62.8115 34.0804 63.9147 33.3689V34.8549C63.4059 35.1205 62.8813 35.3254 62.341 35.4695C61.8051 35.6091 61.1905 35.6789 60.497 35.6789C59.8171 35.6789 59.189 35.5798 58.6126 35.3817C58.0362 35.1791 57.5544 34.9179 57.1672 34.5982C56.7844 34.274 56.4557 33.9048 56.1811 33.4905C55.9109 33.0717 55.7128 32.6507 55.5867 32.2274C55.4651 31.8042 55.4043 31.3877 55.4043 30.9779C55.4043 30.0323 55.625 29.1813 56.0662 28.4248C56.512 27.6638 57.1289 27.0694 57.9169 26.6417C58.7049 26.2139 59.592 26 60.5781 26C61.5057 26 62.5841 26.2589 63.8134 26.7767Z" fill="#1B1B1B"/>
<path d="M67.6052 26.1216V34.3415H71.8672V35.5573H66.2544V26.1216H67.6052Z" fill="#1B1B1B"/>
<path d="M81.6636 26.1216V31.8492C81.6636 33.038 81.3079 33.9745 80.5964 34.659C79.885 35.3389 78.8448 35.6789 77.4759 35.6789C77.0707 35.6789 76.6789 35.6338 76.3007 35.5438C75.927 35.4537 75.5712 35.3119 75.2335 35.1183C74.8958 34.9246 74.6031 34.686 74.3555 34.4023C74.1078 34.1186 73.9097 33.7719 73.7611 33.3622C73.617 32.9479 73.5449 32.4909 73.5449 31.991V26.1216H74.9026V31.7006C74.9026 32.2274 74.9431 32.6282 75.0241 32.9029C75.1052 33.173 75.2538 33.4162 75.4699 33.6323C76.0058 34.1682 76.6834 34.4361 77.503 34.4361C78.4666 34.4361 79.2028 34.1817 79.7116 33.6729C79.9412 33.4432 80.0966 33.164 80.1776 32.8353C80.2632 32.5066 80.306 32.0991 80.306 31.6128V26.1216H81.6636Z" fill="#1B1B1B"/>
<path d="M91.3046 26.1216V27.3373H88.0423V35.5573H86.6847V27.3373H83.4224V26.1216H91.3046Z" fill="#1B1B1B"/>
<path d="M101.297 26.7767V28.2289C100.167 27.5715 99.0838 27.2428 98.0481 27.2428C96.9719 27.2428 96.0759 27.5873 95.3599 28.2762C94.644 28.9606 94.286 29.8207 94.286 30.8563C94.286 31.9145 94.6372 32.7768 95.3396 33.4432C96.0466 34.1051 96.9674 34.4361 98.1021 34.4361C99.1963 34.4361 100.295 34.0804 101.398 33.3689V34.8549C100.889 35.1205 100.365 35.3254 99.8245 35.4695C99.2886 35.6091 98.674 35.6789 97.9806 35.6789C97.3006 35.6789 96.6725 35.5798 96.0961 35.3817C95.5198 35.1791 95.0379 34.9179 94.6507 34.5982C94.268 34.274 93.9393 33.9048 93.6646 33.4905C93.3944 33.0717 93.1963 32.6507 93.0702 32.2274C92.9486 31.8042 92.8878 31.3877 92.8878 30.9779C92.8878 30.0323 93.1085 29.1813 93.5498 28.4248C93.9955 27.6638 94.6124 27.0694 95.4004 26.6417C96.1884 26.2139 97.0755 26 98.0616 26C98.9892 26 100.068 26.2589 101.297 26.7767Z" fill="#1B1B1B"/>
<path d="M111.742 26.1216V35.5573H110.391V31.4507H105.102V35.5573H103.751V26.1216H105.102V30.2349H110.391V26.1216H111.742Z" fill="#1B1B1B"/>
<path d="M119.87 26.1216V27.3373H115.871V30.1876H119.735V31.4102H115.871V34.3415H119.998V35.5573H114.52V26.1216H119.87Z" fill="#1B1B1B"/>
<path d="M126.607 26.6619V28.1951C125.918 27.5422 125.179 27.2158 124.391 27.2158C123.954 27.2158 123.596 27.3216 123.317 27.5332C123.038 27.7404 122.898 28.0083 122.898 28.337C122.898 28.5801 122.973 28.8053 123.121 29.0124C123.274 29.2195 123.47 29.4019 123.709 29.5595C123.948 29.7171 124.211 29.8747 124.499 30.0323C124.792 30.1899 125.082 30.3655 125.37 30.5591C125.663 30.7483 125.929 30.9554 126.167 31.1805C126.406 31.4012 126.6 31.6803 126.748 32.0181C126.901 32.3513 126.978 32.7205 126.978 33.1258C126.978 33.8642 126.728 34.4744 126.228 34.9562C125.728 35.438 125.098 35.6789 124.337 35.6789C123.351 35.6789 122.471 35.3884 121.696 34.8076V33.092C122.043 33.5333 122.428 33.8732 122.851 34.1119C123.279 34.346 123.725 34.4631 124.188 34.4631C124.675 34.4631 125.051 34.3415 125.316 34.0984C125.587 33.8507 125.722 33.576 125.722 33.2744C125.722 33.0132 125.645 32.7678 125.492 32.5381C125.343 32.3085 125.15 32.1059 124.911 31.9303C124.673 31.7501 124.407 31.5745 124.114 31.4034C123.826 31.2278 123.536 31.0454 123.243 30.8563C122.955 30.6672 122.691 30.4668 122.453 30.2552C122.214 30.0436 122.018 29.7891 121.865 29.492C121.716 29.1948 121.642 28.8706 121.642 28.5193C121.642 27.7539 121.903 27.1437 122.426 26.6889C122.948 26.2296 123.641 26 124.506 26C125.249 26 125.949 26.2206 126.607 26.6619Z" fill="#1B1B1B"/>
<path d="M0.867676 0.446777H4.42773V5.02881H15.3438V0.446777H18.915V18H15.3438V8.07227H4.42773V18H0.867676V0.446777Z" fill="#1B1B1B"/>
<path d="M23.9014 0.446777H38.8491V3.56885H27.4614V7.07275H37.5464V10.0039H27.4614V14.8892H39.085V18H23.9014V0.446777Z" fill="#1B1B1B"/>
<path d="M43.0381 0.446777H51.9663C53.314 0.446777 54.4819 0.58903 55.4702 0.873535C56.4585 1.15055 57.2783 1.55485 57.9297 2.08643C58.5811 2.618 59.064 3.26562 59.3784 4.0293C59.7004 4.79297 59.8613 5.65771 59.8613 6.62354C59.8613 7.2749 59.7827 7.89632 59.6255 8.48779C59.4683 9.07178 59.2249 9.61084 58.8955 10.105C58.5736 10.5991 58.1655 11.0409 57.6714 11.4302C57.1772 11.812 56.597 12.1302 55.9307 12.3848L59.749 18H55.3916L52.0898 13.0137H51.9888L46.5981 13.0024V18H43.0381V0.446777ZM52.0562 9.92529C52.73 9.92529 53.3177 9.84668 53.8193 9.68945C54.3284 9.53223 54.7515 9.31136 55.0884 9.02686C55.4328 8.74235 55.6873 8.39795 55.8521 7.99365C56.0243 7.58187 56.1104 7.12516 56.1104 6.62354C56.1104 5.64274 55.7734 4.88656 55.0996 4.35498C54.4258 3.81592 53.4113 3.54639 52.0562 3.54639H46.5981V9.92529H52.0562Z" fill="#1B1B1B"/>
<path d="M64.0952 0.446777H67.6553L74.0342 6.84814L80.4131 0.446777H83.9731V18H80.4131V5.37695L74.0342 11.52L67.6553 5.37695V18H64.0952V0.446777Z" fill="#1B1B1B"/>
<path d="M88.9707 0.446777H103.918V3.56885H92.5308V7.07275H102.616V10.0039H92.5308V14.8892H104.154V18H88.9707V0.446777Z" fill="#1B1B1B"/>
<path d="M108.927 12.7778C109.564 13.1372 110.208 13.4629 110.859 13.7549C111.518 14.0394 112.199 14.2827 112.903 14.4849C113.607 14.6795 114.344 14.8293 115.115 14.9341C115.894 15.0389 116.721 15.0913 117.597 15.0913C118.653 15.0913 119.551 15.0239 120.292 14.8892C121.034 14.7469 121.636 14.556 122.101 14.3164C122.572 14.0693 122.913 13.7773 123.123 13.4404C123.34 13.1035 123.448 12.7367 123.448 12.3398C123.448 11.7035 123.182 11.2018 122.651 10.835C122.119 10.4606 121.299 10.2734 120.191 10.2734C119.705 10.2734 119.192 10.3071 118.653 10.3745C118.114 10.4344 117.567 10.5018 117.013 10.5767C116.467 10.6515 115.924 10.7227 115.385 10.79C114.853 10.8499 114.352 10.8799 113.88 10.8799C113.094 10.8799 112.338 10.7788 111.611 10.5767C110.893 10.3745 110.252 10.0713 109.691 9.66699C109.137 9.2627 108.695 8.75732 108.366 8.15088C108.036 7.54443 107.872 6.83691 107.872 6.02832C107.872 5.54915 107.935 5.07373 108.062 4.60205C108.197 4.13037 108.407 3.68115 108.691 3.25439C108.983 2.82015 109.358 2.4196 109.814 2.05273C110.271 1.67839 110.821 1.35645 111.465 1.08691C112.117 0.817383 112.865 0.607747 113.711 0.458008C114.565 0.300781 115.535 0.222168 116.62 0.222168C117.406 0.222168 118.196 0.26709 118.99 0.356934C119.783 0.43929 120.555 0.559082 121.303 0.716309C122.059 0.873535 122.786 1.06445 123.482 1.28906C124.178 1.50618 124.826 1.74951 125.425 2.01904L123.864 4.89404C123.37 4.67692 122.838 4.47852 122.269 4.29883C121.7 4.11165 121.105 3.95068 120.483 3.81592C119.862 3.68115 119.218 3.57633 118.552 3.50146C117.893 3.41911 117.219 3.37793 116.53 3.37793C115.549 3.37793 114.741 3.44906 114.104 3.59131C113.476 3.73356 112.974 3.91699 112.6 4.1416C112.225 4.35872 111.963 4.60579 111.813 4.88281C111.671 5.15234 111.6 5.42188 111.6 5.69141C111.6 6.21549 111.836 6.646 112.308 6.98291C112.779 7.31234 113.498 7.47705 114.464 7.47705C114.853 7.47705 115.299 7.45085 115.8 7.39844C116.309 7.33854 116.841 7.2749 117.395 7.20752C117.957 7.14014 118.526 7.08024 119.102 7.02783C119.686 6.96794 120.251 6.93799 120.798 6.93799C121.831 6.93799 122.744 7.05404 123.538 7.28613C124.339 7.51823 125.009 7.8514 125.548 8.28564C126.087 8.7124 126.495 9.23275 126.772 9.84668C127.049 10.4531 127.188 11.1344 127.188 11.8906C127.188 12.9014 126.952 13.8035 126.48 14.5972C126.016 15.3833 125.35 16.0496 124.481 16.5962C123.62 17.1353 122.58 17.547 121.359 17.8315C120.139 18.1086 118.78 18.2471 117.283 18.2471C116.294 18.2471 115.329 18.1834 114.385 18.0562C113.442 17.9364 112.536 17.7642 111.667 17.5396C110.806 17.3075 109.983 17.0342 109.197 16.7197C108.418 16.3978 107.696 16.0459 107.029 15.6641L108.927 12.7778Z" fill="#1B1B1B"/>
</svg>
